<?xml version="1.0" encoding="utf-8"?>
<!-- Generator: Adobe Illustrator 24.2.0, SVG Export Plug-In . SVG Version: 6.00 Build 0)  -->
<svg version="1.1" id="Layer_1" xmlns="http://www.w3.org/2000/svg" xmlns:xlink="http://www.w3.org/1999/xlink" x="0px" y="0px"
	 viewBox="0 0 1000 1000" style="enable-background:new 0 0 1000 1000;" xml:space="preserve">
<style type="text/css">
	.st0{fill:#585F65;}
	.st1{fill:#4E7DBF;}
	.st2{fill:#33B061;}
	.st3{fill:#FCBA2A;}
	.st4{fill:#F05141;}
</style>
<g>
	<path class="st0" d="M477.4,496.2v97.4h-30.9V353.1h81.9c19.8-0.4,38.7,7.1,53.1,20.9c14.4,12.9,22.4,31.5,22.1,50.6
		c0.4,19.4-7.7,38-22.1,51c-14.4,13.6-32,20.5-52.9,20.5H477.4z M477.4,382.6v84h51.8c11.5,0.4,22.6-4.2,30.5-12.5
		c16.3-15.7,16.5-41.6,0.8-57.9l-0.8-0.8c-7.9-8.4-19-13-30.5-12.7C529.2,382.8,477.4,382.6,477.4,382.6z M674.8,423.7
		c22.8,0,40.9,6.1,54.1,18.2c13.2,12.3,19.8,29,19.8,50.3v101.3h-29.5v-22.8h-1.3c-12.9,18.8-29.7,28.2-51,28.2
		c-18,0-33.4-5.4-45.5-16.1c-11.9-10-18.6-24.7-18.2-40.3c0-17.1,6.5-30.5,19.4-40.7s30.1-15.2,51.6-15.2c18.4,0,33.4,3.5,45.3,10
		v-7.1c0-10.5-4.6-20.5-12.7-27.2c-8.2-7.3-18.8-11.3-29.7-11.3c-17.3,0-30.9,7.3-41,21.9l-27.2-17.1
		C623.3,434.4,645.4,423.7,674.8,423.7L674.8,423.7z M634.9,543.2c0,8.1,3.8,15.5,10.2,20.1c6.9,5.4,15.3,8.2,24,8.1
		c13,0,25.5-5.2,34.7-14.4c10.2-9.6,15.3-20.9,15.3-33.9c-9.6-7.7-23-11.5-40.3-11.5c-12.5,0-23,3.1-31.5,9
		C639.1,526.7,634.9,534.1,634.9,543.2z M918.1,429L815,666.1h-31.8l38.4-82.9l-67.9-154h33.6l48.9,118.1h0.8l47.8-118.1L918.1,429z
		"/>
	<path class="st1" d="M352.5,475.1c0-9.4-0.8-18.8-2.3-28H220v53.1h74.6c-3.1,17.1-13,32.4-27.6,42v34.5h44.5
		C337.6,552.7,352.5,517.3,352.5,475.1L352.5,475.1z"/>
	<path class="st2" d="M220,610.1c37.2,0,68.7-12.3,91.5-33.4L267,542.2c-12.5,8.4-28.4,13.2-47,13.2c-36.1,0-66.6-24.4-77.5-57H96.7
		v35.7C120.1,580.6,167.8,610.1,220,610.1z"/>
	<path class="st3" d="M142.5,498.5c-5.8-17.1-5.8-35.7,0-52.9v-35.5H96.7c-19.8,38.9-19.8,85,0,123.9L142.5,498.5z"/>
	<path class="st4" d="M220,388.6c19.8-0.4,38.7,7.1,52.9,20.7l39.3-39.3c-24.9-23.6-57.9-36.4-92.3-36.1
		c-52.2,0-99.9,29.5-123.3,76.1l45.8,35.7C153.4,412.9,183.9,388.6,220,388.6z"/>
</g>
</svg>
